<svg xmlns="http://www.w3.org/2000/svg" xmlns:xlink="http://www.w3.org/1999/xlink" id="Capa_1" x="0px" y="0px" viewBox="0 0 1080 246.3" style="enable-background:new 0 0 1080 246.3;" xml:space="preserve"><style type="text/css">	.st0{fill:#E73051;}	.st1{fill:#FFFFFF;}	.st2{fill:#1D1D1C;}</style><g>	<g>		<path class="st0" d="M3.7,112.2c31.1,64.9,87.6,111.3,153,131.2c15.3,4.7,32-1.1,41.2-14.2c39.2-56.1,55-127.5,39.4-197.7   c-3.5-15.9-16.9-27.9-33.1-29.3c-33.9-2.9-69,1-103.3,12.9C66.6,26.9,36.6,45.5,11.7,68.7C-0.2,79.9-3.3,97.5,3.7,112.2"></path>		<path class="st1" d="M91.8,107.8c-4.1,0-8.1-2.1-10.2-5.9c-3.2-5.6-1.3-12.8,4.4-16.1l66.8-38.3c5.7-3.2,12.9-1.3,16.1,4.4   c3.2,5.6,1.3,12.8-4.4,16.1l-66.8,38.3C95.8,107.3,93.8,107.8,91.8,107.8"></path>		<path class="st1" d="M165.6,181.4c-31.1,0-60.9-17.5-76.3-45.1c-1.7-3-2-6.6-0.8-9.8c1.2-3.2,3.7-5.8,6.9-7l50.5-19.4   c6.1-2.3,12.9,0.7,15.2,6.8c2.3,6.1-0.7,12.9-6.8,15.2L118,136.2c12.3,13.8,30.4,22,48.8,21.7c0.1,0,0.2,0,0.3,0   c6.4,0,11.6,5.1,11.8,11.5c0.1,6.5-5,11.9-11.5,12C166.7,181.4,166.2,181.4,165.6,181.4"></path>	</g>	<path class="st2" d="M1042,161.1l10.4,24.6h-20.7L1042,161.1z M1020.4,212.5l6-14.1h31.1l5.9,14.1h16.5l-30.7-69.1h-14.6  l-30.8,69.1H1020.4z M928.9,194.1c-4-4.1-6-9.5-6-16.3c0-6.7,2-12.1,6-16.2c4-4.1,9.2-6.1,15.8-6.1c10.2,0,16.7,4.9,19.6,14.7H980  c-1.3-8.7-5.1-15.6-11.7-20.7c-6.5-5.1-14.5-7.7-23.8-7.7c-11.2,0-20.2,3.3-27.1,9.9c-6.8,6.6-10.3,15.3-10.3,26.1  c0,10.9,3.4,19.6,10.3,26.2c6.8,6.6,15.9,9.9,27.1,9.9c9.4,0,17.4-2.6,23.9-7.7c6.5-5.1,10.3-12.1,11.6-20.8h-15.8  c-2.8,9.9-9.3,14.8-19.6,14.8C938.2,200.3,932.9,198.2,928.9,194.1 M874.2,143.4h-15.5v69.1h15.5V143.4z M817.6,208.2  c5.2-3.9,7.8-9.1,7.8-15.6c0-5.9-1.7-10.4-5.2-13.6c-3.5-3.2-8.7-5.4-15.5-6.7l-10.1-1.8c-6.6-1.1-9.9-3.9-9.9-8.3  c0-2.4,1.1-4.4,3.2-5.9c2.1-1.5,4.9-2.3,8.4-2.3c3.7,0,6.6,0.9,8.9,2.6c2.2,1.7,3.4,4,3.4,6.9h15.7c0-6.3-2.6-11.5-7.9-15.6  c-5.3-4.1-12-6.1-20.2-6.1c-8.4,0-15.2,2-20.4,5.9c-5.2,3.9-7.8,9.1-7.8,15.6c0,6.3,1.7,11,5.2,14.2c3.5,3.2,8.8,5.5,16,6.7  l10.3,1.7c3.4,0.6,5.9,1.5,7.4,2.7c1.5,1.2,2.2,2.9,2.2,5.2c0,2.3-1.1,4.2-3.3,5.6c-2.2,1.4-5,2.2-8.6,2.2c-4.6,0-8.3-1-11.1-3.1  c-2.8-2-4.2-4.7-4.2-8h-15.4c0,6.9,2.9,12.6,8.6,17c5.7,4.4,13.1,6.6,22.1,6.6C805.6,214.1,812.4,212.1,817.6,208.2 M726.1,205.5  c5.9-5.7,8.8-13.5,8.8-23.3v-38.8h-15.6v39c0,5.5-1.5,9.8-4.6,13.1c-3.1,3.3-7.2,4.9-12.3,4.9c-5.1,0-9.2-1.6-12.2-4.9  c-3.1-3.3-4.6-7.7-4.6-13.1v-39h-15.6v38.8c0,9.8,2.9,17.6,8.8,23.3c5.9,5.7,13.8,8.6,23.7,8.6  C712.3,214.1,720.2,211.2,726.1,205.5 M708.3,136.6l10.7-15.7h-15.7l-8.4,15.7H708.3z M570.5,212.5v-43.8h0.3l19.2,43.8h11.7  l19.1-43.5h0.2v43.5h15v-69.1h-18.8l-21.3,48.8l-21.4-48.8h-18.8v69.1H570.5z M476.5,143.4h-53v69.1h53v-12.8h-37.4v-15h32.8v-12.7  h-32.8v-15.7h37.4V143.4z M340,156.6h10.8c7.2,0,13.1,2,17.4,5.9c4.4,3.9,6.6,9.1,6.6,15.5c0,6.4-2.2,11.5-6.6,15.5  c-4.4,3.9-10.2,5.9-17.4,5.9H340V156.6z M351.9,212.5c11.8,0,21.2-3.1,28.2-9.4c7-6.3,10.5-14.7,10.5-25.1  c0-10.5-3.5-18.8-10.5-25.1c-7-6.3-16.4-9.4-28.2-9.4h-27.4v69.1H351.9z"></path>	<path class="st2" d="M696.9,33.8h-15.5V103h15.5V33.8z M613.6,51.5L624,76.1h-20.7L613.6,51.5z M592.1,103l6-14.1h31.1l5.9,14.1  h16.5L621,33.8h-14.6L575.5,103H592.1z M515.3,46.8h12c4.3,0,7.8,1.1,10.4,3.2c2.7,2.1,4,4.8,4,8.2c0,3.6-1.4,6.6-4,8.8  c-2.7,2.3-6.2,3.4-10.4,3.4h-12V46.8z M515.3,103V83.2h12.8c8.7,0,15.7-2.3,21.1-6.9c5.4-4.6,8.1-10.7,8.1-18.2  c0-7.2-2.6-13.1-7.9-17.6c-5.2-4.5-12.1-6.7-20.6-6.7h-29V103H515.3z M458.6,98.6c5.2-4,7.8-9.2,7.8-15.6c0-5.9-1.7-10.4-5.2-13.6  c-3.5-3.2-8.7-5.4-15.5-6.7L435.6,61c-6.6-1.1-9.9-3.9-9.9-8.3c0-2.4,1.1-4.4,3.2-5.9c2.1-1.5,4.9-2.3,8.4-2.3  c3.7,0,6.6,0.9,8.9,2.6c2.2,1.7,3.4,4,3.4,6.9h15.7c0-6.3-2.6-11.5-7.9-15.6c-5.3-4.1-12-6.1-20.2-6.1c-8.4,0-15.2,2-20.4,5.9  c-5.2,3.9-7.8,9.1-7.8,15.6c0,6.3,1.7,11,5.2,14.2c3.5,3.2,8.8,5.5,16,6.7l10.3,1.7c3.4,0.6,5.9,1.5,7.4,2.7  c1.5,1.2,2.2,2.9,2.2,5.2c0,2.3-1.1,4.2-3.3,5.6c-2.2,1.4-5,2.2-8.6,2.2c-4.6,0-8.3-1-11.1-3.1c-2.8-2-4.2-4.7-4.2-8h-15.4  c0,6.9,2.9,12.6,8.6,17c5.7,4.4,13.1,6.6,22.1,6.6C446.6,104.5,453.4,102.6,458.6,98.6 M377.5,33.8h-52.9V103h52.9V90.1H340v-15  h32.8V62.4H340V46.7h37.4V33.8z"></path></g></svg>